<mxfile host="Electron" modified="2024-04-14T14:55:17.240Z" agent="Mozilla/5.0 (Macintosh; Intel Mac OS X 10_15_7) AppleWebKit/537.36 (KHTML, like Gecko) draw.io/24.2.5 Chrome/120.0.6099.109 Electron/28.1.0 Safari/537.36" etag="rpmj8a2U77gKud6EIfo5" version="24.2.5" type="device">
  <diagram name="Страница — 1" id="yG0lJQnOgiJo66j0G0J_">
    <mxGraphModel dx="497" dy="385" grid="1" gridSize="10" guides="1" tooltips="1" connect="1" arrows="1" fold="1" page="1" pageScale="1" pageWidth="827" pageHeight="1169" math="0" shadow="0">
      <root>
        <mxCell id="0" />
        <mxCell id="1" parent="0" />
        <mxCell id="GCUIPTcQ4cA04jbx8-0T-2" value="" style="rounded=0;whiteSpace=wrap;html=1;" vertex="1" parent="1">
          <mxGeometry x="450" y="240" width="170" height="50" as="geometry" />
        </mxCell>
        <mxCell id="GCUIPTcQ4cA04jbx8-0T-3" value="Входные данные" style="text;html=1;align=center;verticalAlign=middle;whiteSpace=wrap;rounded=0;" vertex="1" parent="1">
          <mxGeometry x="450" y="240" width="110" height="30" as="geometry" />
        </mxCell>
        <mxCell id="GCUIPTcQ4cA04jbx8-0T-4" value="" style="shape=flexArrow;endArrow=classic;html=1;rounded=0;" edge="1" parent="1">
          <mxGeometry width="50" height="50" relative="1" as="geometry">
            <mxPoint x="370" y="264.5" as="sourcePoint" />
            <mxPoint x="440" y="264.5" as="targetPoint" />
          </mxGeometry>
        </mxCell>
        <mxCell id="GCUIPTcQ4cA04jbx8-0T-5" value="" style="endArrow=classic;html=1;rounded=0;" edge="1" parent="1">
          <mxGeometry width="50" height="50" relative="1" as="geometry">
            <mxPoint x="400" y="160" as="sourcePoint" />
            <mxPoint x="400" y="260" as="targetPoint" />
          </mxGeometry>
        </mxCell>
        <mxCell id="GCUIPTcQ4cA04jbx8-0T-6" value="Опционально" style="edgeLabel;html=1;align=center;verticalAlign=middle;resizable=0;points=[];" vertex="1" connectable="0" parent="GCUIPTcQ4cA04jbx8-0T-5">
          <mxGeometry x="-0.0714" y="-2" relative="1" as="geometry">
            <mxPoint as="offset" />
          </mxGeometry>
        </mxCell>
        <mxCell id="GCUIPTcQ4cA04jbx8-0T-8" value="" style="rounded=0;whiteSpace=wrap;html=1;" vertex="1" parent="1">
          <mxGeometry x="329" y="110" width="170" height="50" as="geometry" />
        </mxCell>
        <mxCell id="GCUIPTcQ4cA04jbx8-0T-9" value="Модуль подготовки входных данных" style="text;html=1;align=center;verticalAlign=middle;whiteSpace=wrap;rounded=0;" vertex="1" parent="1">
          <mxGeometry x="329" y="110" width="121" height="30" as="geometry" />
        </mxCell>
        <mxCell id="GCUIPTcQ4cA04jbx8-0T-10" value="" style="endArrow=classic;html=1;rounded=0;" edge="1" parent="1">
          <mxGeometry width="50" height="50" relative="1" as="geometry">
            <mxPoint x="200" y="135" as="sourcePoint" />
            <mxPoint x="329" y="134.71" as="targetPoint" />
          </mxGeometry>
        </mxCell>
        <mxCell id="GCUIPTcQ4cA04jbx8-0T-12" value="Реализация&amp;nbsp;&lt;div&gt;коллекции Set&lt;/div&gt;" style="edgeLabel;html=1;align=center;verticalAlign=middle;resizable=0;points=[];" vertex="1" connectable="0" parent="GCUIPTcQ4cA04jbx8-0T-10">
          <mxGeometry x="-0.0322" y="-1" relative="1" as="geometry">
            <mxPoint as="offset" />
          </mxGeometry>
        </mxCell>
        <mxCell id="GCUIPTcQ4cA04jbx8-0T-13" value="" style="endArrow=classic;html=1;rounded=0;" edge="1" parent="1">
          <mxGeometry width="50" height="50" relative="1" as="geometry">
            <mxPoint x="360" y="40" as="sourcePoint" />
            <mxPoint x="360" y="110" as="targetPoint" />
          </mxGeometry>
        </mxCell>
        <mxCell id="GCUIPTcQ4cA04jbx8-0T-14" value="Fc" style="edgeLabel;html=1;align=center;verticalAlign=middle;resizable=0;points=[];" vertex="1" connectable="0" parent="GCUIPTcQ4cA04jbx8-0T-13">
          <mxGeometry x="-0.0327" y="1" relative="1" as="geometry">
            <mxPoint as="offset" />
          </mxGeometry>
        </mxCell>
        <mxCell id="GCUIPTcQ4cA04jbx8-0T-15" value="" style="endArrow=classic;html=1;rounded=0;" edge="1" parent="1">
          <mxGeometry width="50" height="50" relative="1" as="geometry">
            <mxPoint x="400" y="40" as="sourcePoint" />
            <mxPoint x="400" y="110" as="targetPoint" />
          </mxGeometry>
        </mxCell>
        <mxCell id="GCUIPTcQ4cA04jbx8-0T-16" value="Rc" style="edgeLabel;html=1;align=center;verticalAlign=middle;resizable=0;points=[];" vertex="1" connectable="0" parent="GCUIPTcQ4cA04jbx8-0T-15">
          <mxGeometry x="-0.0327" y="1" relative="1" as="geometry">
            <mxPoint as="offset" />
          </mxGeometry>
        </mxCell>
        <mxCell id="GCUIPTcQ4cA04jbx8-0T-17" value="" style="endArrow=classic;html=1;rounded=0;" edge="1" parent="1">
          <mxGeometry width="50" height="50" relative="1" as="geometry">
            <mxPoint x="440" y="40" as="sourcePoint" />
            <mxPoint x="440" y="110" as="targetPoint" />
          </mxGeometry>
        </mxCell>
        <mxCell id="GCUIPTcQ4cA04jbx8-0T-18" value="Mfc" style="edgeLabel;html=1;align=center;verticalAlign=middle;resizable=0;points=[];" vertex="1" connectable="0" parent="GCUIPTcQ4cA04jbx8-0T-17">
          <mxGeometry x="-0.0327" y="1" relative="1" as="geometry">
            <mxPoint as="offset" />
          </mxGeometry>
        </mxCell>
        <mxCell id="GCUIPTcQ4cA04jbx8-0T-20" value="" style="endArrow=classic;html=1;rounded=0;" edge="1" parent="1">
          <mxGeometry width="50" height="50" relative="1" as="geometry">
            <mxPoint x="480" y="40" as="sourcePoint" />
            <mxPoint x="480" y="110" as="targetPoint" />
          </mxGeometry>
        </mxCell>
        <mxCell id="GCUIPTcQ4cA04jbx8-0T-21" value="Mfr" style="edgeLabel;html=1;align=center;verticalAlign=middle;resizable=0;points=[];" vertex="1" connectable="0" parent="GCUIPTcQ4cA04jbx8-0T-20">
          <mxGeometry x="-0.0327" y="1" relative="1" as="geometry">
            <mxPoint as="offset" />
          </mxGeometry>
        </mxCell>
        <mxCell id="GCUIPTcQ4cA04jbx8-0T-23" value="Mt, Mr, &lt;font face=&quot;CMMI10&quot;&gt;&lt;span style=&quot;font-size: 13.3333px;&quot;&gt;F&lt;sup&gt;*&lt;/sup&gt;&lt;sub&gt;sc&lt;/sub&gt;, R&lt;sup&gt;*&lt;/sup&gt;&lt;/span&gt;&lt;/font&gt;&lt;span style=&quot;background-color: initial; font-size: 7pt; font-family: CMR7; vertical-align: 4pt;&quot;&gt;&amp;nbsp;&lt;/span&gt;" style="text;html=1;align=center;verticalAlign=middle;whiteSpace=wrap;rounded=0;" vertex="1" parent="1">
          <mxGeometry x="450" y="260" width="170" height="30" as="geometry" />
        </mxCell>
      </root>
    </mxGraphModel>
  </diagram>
</mxfile>
